<?xml version="1.0" encoding="UTF-8" standalone="no"?>
<!-- Created with Inkscape (http://www.inkscape.org/) -->

<svg
   width="37.909763mm"
   height="37.909767mm"
   viewBox="0 0 37.909763 37.909767"
   version="1.1"
   id="svg5"
   xml:space="preserve"
   xmlns="http://www.w3.org/2000/svg"
   xmlns:svg="http://www.w3.org/2000/svg"><defs
     id="defs2" /><g
     id="layer1"
     style="display:inline"
     transform="translate(-9.0854733,-7.569926)"><g
       id="g257"
       transform="matrix(0.29154327,0,0,0.29154327,-3.1245802,1.4954954)"><g
         id="g3139"
         transform="matrix(1.5339444,1.5339444,-1.5339444,1.5339444,259.17642,-212.55065)"
         style="display:inline"><path
           id="path3085"
           style="display:inline;fill:#000000;fill-opacity:1;stroke:none;stroke-width:2.41756;paint-order:stroke fill markers"
           d="M 77.59989,146.9029 A 29.970467,29.970467 0 0 1 47.62942,176.87336 29.970467,29.970467 0 0 1 17.658959,146.9029 29.970467,29.970467 0 0 1 47.62942,116.93243 29.970467,29.970467 0 0 1 77.59989,146.9029 Z" /><path
           id="path3077"
           style="display:inline;fill:#000000;stroke-width:2.29085;paint-order:stroke fill markers"
           d="M 76.029043,146.9029 A 28.399618,28.399618 0 0 1 47.629422,175.30251 28.399618,28.399618 0 0 1 19.229811,146.9029 28.399618,28.399618 0 0 1 47.629422,118.50328 28.399618,28.399618 0 0 1 76.029043,146.9029 Z" /></g><g
         id="g3092"
         transform="matrix(2.3157378,0,0,2.3157378,4.2508422,-275.17308)"
         style="display:inline;fill:#e6e6e6"><path
           id="path3070"
           style="display:inline;fill:#e6e6e6;fill-opacity:1;stroke:none;stroke-width:1.51163;paint-order:stroke fill markers"
           d="m 45.553305,135.97892 v 29.71079 l 3.45429,-0.018 v -9.14035 l 0.571273,-1.14255 9.230027,10.3009 h 4.57089 l -11.42723,-13.71267 8.569708,-15.99687 -3.998906,-2.5e-4 -7.515762,13.69617 v -13.71053 z" /><path
           id="path2583"
           style="display:inline;fill:#aa8800;fill-opacity:1;stroke:none;stroke-width:1.51163;paint-order:stroke fill markers"
           d="m 43.521008,131.4091 -2.511224,3.7979 v 30.51735 2.17981 l -8.370888,0.0721 -1.142723,-1.14272 -2.285445,2.28545 2.285445,2.28544 1.142723,-1.14272 h 6.856338 1.14272 l 0.707186,-0.0101 0.0161,4.5273 h -0.79991 v 5.71361 l 3.42817,-3.42817 v -2.28544 h -0.79991 l 10e-7,-4.5273 0.876529,0.0101 h 1.14272 6.85634 l 1.14272,1.14272 2.28545,-2.28544 -2.28545,-2.28545 -1.14272,1.14272 -8.540233,-0.0721 z" /><path
           id="path3007"
           style="display:inline;fill:#e6e6e6;fill-opacity:1;stroke:none;stroke-width:1.51163;paint-order:stroke fill markers"
           d="M 38.953204,135.96556 24.07347,165.68739 h 3.998905 l 4.139817,-8.01349 h 6.741012 v -3.9989 l -4.798686,-4e-5 4.798686,-9.71159 z" /></g></g></g></svg>
